<svg width="23" height="23" viewBox="0 0 23 23" fill="none" xmlns="http://www.w3.org/2000/svg">
<g id="icn bxs-star">
<path id="Vector" d="M21.0964 8.41927C21.0387 8.24946 20.9326 8.10025 20.7911 7.99006C20.6496 7.87987 20.479 7.81353 20.3002 7.79922L15.0711 7.38371L12.8083 2.3747C12.7362 2.21337 12.619 2.07634 12.4708 1.98016C12.3225 1.88397 12.1496 1.83274 11.973 1.83264C11.7963 1.83254 11.6233 1.88359 11.475 1.97961C11.3267 2.07563 11.2093 2.21253 11.1371 2.37378L8.87424 7.38371L3.64509 7.79922C3.4694 7.81314 3.30144 7.87738 3.1613 7.98425C3.02116 8.09113 2.91478 8.23612 2.85489 8.40187C2.79499 8.56762 2.78412 8.74712 2.82356 8.91889C2.86301 9.09066 2.95111 9.24743 3.07732 9.37044L6.94163 13.1375L5.57495 19.0555C5.53345 19.2347 5.54675 19.4221 5.61313 19.5936C5.6795 19.7651 5.79588 19.9127 5.94717 20.0172C6.09845 20.1217 6.27766 20.1783 6.46153 20.1797C6.64541 20.1811 6.82546 20.1272 6.97832 20.025L11.9727 16.6955L16.967 20.025C17.1232 20.1288 17.3075 20.1822 17.495 20.1781C17.6825 20.1739 17.8642 20.1125 18.0158 20.002C18.1673 19.8916 18.2814 19.7373 18.3426 19.5601C18.4039 19.3828 18.4094 19.1911 18.3584 19.0106L16.6808 13.1403L20.8414 9.39612C21.1138 9.15031 21.2138 8.7669 21.0964 8.41927Z" fill="#E77C40"/>
</g>
</svg>
