<svg width="23" height="23" viewBox="0 0 23 23" fill="none" xmlns="http://www.w3.org/2000/svg">
<g id="icn bx-star">
<path id="Vector" d="M5.99772 13.1376L4.63104 19.0556C4.58872 19.2348 4.60143 19.4226 4.6675 19.5945C4.73357 19.7663 4.84993 19.9143 5.00139 20.019C5.15286 20.1237 5.33237 20.1803 5.5165 20.1814C5.70062 20.1825 5.8808 20.128 6.03349 20.0251L11.0278 16.6956L16.0222 20.0251C16.1784 20.1289 16.3627 20.1823 16.5502 20.1781C16.7377 20.174 16.9194 20.1126 17.0709 20.0021C17.2225 19.8916 17.3365 19.7374 17.3978 19.5602C17.4591 19.3829 17.4646 19.1911 17.4136 19.0107L15.736 13.1404L19.8966 9.39622C20.0298 9.27623 20.125 9.11982 20.1703 8.94632C20.2156 8.77283 20.209 8.58986 20.1515 8.42004C20.0939 8.25023 19.9878 8.10101 19.8463 7.99085C19.7048 7.88069 19.5342 7.81442 19.3554 7.80023L14.1263 7.3838L11.8634 2.37479C11.7913 2.2135 11.674 2.07654 11.5257 1.98043C11.3774 1.88433 11.2045 1.83319 11.0278 1.83319C10.8511 1.83319 10.6782 1.88433 10.53 1.98043C10.3817 2.07654 10.2644 2.2135 10.1922 2.37479L7.92942 7.3838L2.70027 7.79931C2.52457 7.81323 2.35661 7.87747 2.21647 7.98434C2.07634 8.09122 1.96996 8.23621 1.91006 8.40196C1.85017 8.56771 1.83929 8.74721 1.87874 8.91898C1.91819 9.09075 2.00629 9.24752 2.1325 9.37053L5.99772 13.1376ZM8.61459 9.16966C8.77831 9.15676 8.93555 9.10005 9.06982 9.00549C9.20409 8.91092 9.31044 8.78197 9.37773 8.63216L11.0278 4.98065L12.6779 8.63216C12.7452 8.78197 12.8516 8.91092 12.9859 9.00549C13.1201 9.10005 13.2774 9.15676 13.4411 9.16966L17.0843 9.45859L14.0841 12.1589C13.8236 12.3937 13.7199 12.7551 13.8153 13.0927L14.9646 17.1147L11.5378 14.8299C11.3874 14.729 11.2104 14.6751 11.0292 14.6751C10.8481 14.6751 10.671 14.729 10.5206 14.8299L6.93972 17.2175L7.90282 13.0477C7.93813 12.8944 7.93339 12.7345 7.88906 12.5835C7.84472 12.4325 7.76228 12.2954 7.64966 12.1855L4.8631 9.46868L8.61459 9.16966Z" fill="#E77C40"/>
</g>
</svg>
